<?xml version="1.0" standalone="no"?>
<!DOCTYPE svg PUBLIC "-//W3C//DTD SVG 20010904//EN" "http://www.w3.org/TR/2001/REC-SVG-20010904/DTD/svg10.dtd">
<!-- Created using Krita: https://krita.org -->
<svg xmlns="http://www.w3.org/2000/svg" 
    xmlns:xlink="http://www.w3.org/1999/xlink"
    xmlns:krita="http://krita.org/namespaces/svg/krita"
    xmlns:sodipodi="http://sodipodi.sourceforge.net/DTD/sodipodi-0.dtd"
    width="259.2pt"
    height="259.2pt"
    viewBox="0 0 259.2 259.2">
<defs/>
<ellipse id="shape0" transform="matrix(1.16443918382476 0.0190969246537491 -0.017207190810363 1.04921224681077 93.1692418138897 179.253928491559)" rx="0.11999999999999" ry="20.28" cx="0.11999999999999" cy="20.28" fill="#000000" fill-rule="evenodd" stroke="#000000" stroke-width="9.6" stroke-linecap="square" stroke-linejoin="bevel"/><ellipse id="shape01" transform="matrix(1.16443921912032 0.0190969252326 -0.0172071913319338 1.04921227861366 146.976573041446 182.725374310509)" rx="0.11999999999999" ry="20.28" cx="0.11999999999999" cy="20.28" fill="#000000" fill-rule="evenodd" stroke="#000000" stroke-width="9.6" stroke-linecap="square" stroke-linejoin="bevel"/><ellipse id="shape02" transform="matrix(1.16443918387396 0.0190969246545559 -0.01720719081109 1.0492122468551 198.469596639161 175.782488264642)" rx="0.11999999999999" ry="20.28" cx="0.11999999999999" cy="20.28" fill="#000000" fill-rule="evenodd" stroke="#000000" stroke-width="9.6" stroke-linecap="square" stroke-linejoin="bevel"/><path id="shape03" transform="matrix(1.20536124054859 0 0 1.20536124054859 16.8738987917659 142.302688142684)" fill="none" stroke="#000000" stroke-width="9.6" stroke-linecap="square" stroke-linejoin="bevel" d="M29.73 0L29.61 24.84C-9.90996 16.52 -9.86996 8.24 29.73 0Z" sodipodi:nodetypes="ccc"/><path id="shape04" transform="matrix(1.2053612506704 0 0 1.2053612506704 125.934947135939 19.424193383578)" fill="none" stroke="#000000" stroke-width="9.6" stroke-linecap="square" stroke-linejoin="bevel" d="M12.9201 74.7154C46.3018 74.7154 68.6313 -4.43295 17.7201 0.19535C-15.3556 3.20223 7.15275 74.5954 11.7201 74.5954" sodipodi:nodetypes="ccc"/><path id="shape05" transform="matrix(1.20536121495782 0 0 1.20536121495782 91.134925886414 25.7025431485231)" fill="none" stroke="#000000" stroke-width="9.6" stroke-linecap="square" stroke-linejoin="bevel" d="M36.2318 68.6021C47.8284 68.6021 49.6223 41.7967 50.3173 34.1519C55.4313 -22.1017 -33.2625 -3.06997 13.8306 49.2557C21.3946 57.6601 31.9521 62.286 39.2865 69.6203" sodipodi:nodetypes="cccc"/><ellipse id="shape06" transform="matrix(1.20536124355261 0 0 1.20536124355261 24.2025506517802 154.033333635883)" rx="8.64" ry="3.36" cx="8.64" cy="3.36" fill="#000000" fill-rule="evenodd" stroke="#000000" stroke-width="9.6" stroke-linecap="square" stroke-linejoin="bevel"/><path id="shape07" transform="matrix(1.17351319569596 0.23564964218861 -0.23564964218861 1.17351319569596 198.68642578795 103.564713773124)" fill="none" stroke="#000000" stroke-width="6" stroke-linecap="square" stroke-linejoin="bevel" d="M14.7034 7.82923C10.545 7.82923 -0.217901 28.8939 0.00336097 28.9492C0.66257 29.114 2.62511 27.1343 3.12336 26.6692C8.69184 21.472 12.9686 13.4238 19.6234 9.50923C47.166 -6.69234 17.9066 -0.0355914 8.94336 13.4092" sodipodi:nodetypes="ccccc"/><ellipse id="shape08" transform="matrix(1.20536127702837 0 0 1.20536127702837 39.968677896193 108.615323011676)" rx="77.04" ry="39.24" cx="77.04" cy="39.24" fill="#fccb00" fill-rule="evenodd" stroke="#fccb00" stroke-width="9.6" stroke-linecap="square" stroke-linejoin="bevel"/><path id="shape09" transform="matrix(1.25140847337959 0 0 1.25140847337958 184.531753029887 93.2400451874874)" fill="none" stroke="#000000" stroke-width="6" stroke-linecap="square" stroke-linejoin="bevel" d="M14.7034 7.82923C10.545 7.82923 -0.217901 28.8939 0.00336097 28.9492C0.66257 29.114 2.62511 27.1343 3.12336 26.6692C8.69184 21.472 12.9686 13.4238 19.6234 9.50923C47.166 -6.69234 17.9066 -0.0355914 8.94336 13.4092" sodipodi:nodetypes="ccccc"/><ellipse id="shape010" transform="matrix(1.16443918824908 0.0190969247263084 -0.0172071908757422 1.04921225079728 181.112400441353 184.171803098522)" rx="0.11999999999999" ry="20.28" cx="0.11999999999999" cy="20.28" fill="#000000" fill-rule="evenodd" stroke="#000000" stroke-width="9.6" stroke-linecap="square" stroke-linejoin="bevel"/><ellipse id="shape011" transform="matrix(1.16443923402975 0.0190969254771163 -0.017207191552254 1.04921229204773 129.040797500248 188.800397539117)" rx="0.11999999999999" ry="20.28" cx="0.11999999999999" cy="20.28" fill="#000000" fill-rule="evenodd" stroke="#000000" stroke-width="9.6" stroke-linecap="square" stroke-linejoin="bevel"/><ellipse id="shape012" transform="matrix(1.16443917790431 0.0190969245566531 -0.0172071907228751 1.04921224147617 77.8370469389534 183.882520199786)" rx="0.11999999999999" ry="20.28" cx="0.11999999999999" cy="20.28" fill="#000000" fill-rule="evenodd" stroke="#000000" stroke-width="9.6" stroke-linecap="square" stroke-linejoin="bevel"/><ellipse id="shape013" transform="matrix(0.790152717412669 0 0 1.29843348220651 203.246641173269 139.172151066187)" rx="3.48" ry="3.36" cx="3.48" cy="3.36" fill="#000000" fill-rule="evenodd" stroke="#000000" stroke-width="9.6" stroke-linecap="square" stroke-linejoin="bevel"/><ellipse id="shape014" transform="matrix(1.26756957032333 0 0 1.60944099651073 100.477684297318 112.724777127322)" rx="5.04" ry="26.88" cx="5.04" cy="26.88" fill="#000000" fill-rule="evenodd" stroke="#000000" stroke-width="9.6" stroke-linecap="square" stroke-linejoin="bevel"/><ellipse id="shape015" transform="matrix(1.24047981357628 0 0 1.62086169909581 149.582650746219 112.139880673202)" rx="5.04" ry="26.88" cx="5.04" cy="26.88" fill="#000000" fill-rule="evenodd" stroke="#000000" stroke-width="9.6" stroke-linecap="square" stroke-linejoin="bevel"/><ellipse id="shape016" transform="matrix(1.08601016517754 0 0 1.14825357507288 56.8849385552914 125.018685687291)" rx="5.04" ry="26.88" cx="5.04" cy="26.88" fill="#000000" fill-rule="evenodd" stroke="#000000" stroke-width="9.6" stroke-linecap="square" stroke-linejoin="bevel"/>
</svg>
